<svg width="801" height="801" viewBox="0 0 801 801" fill="none" xmlns="http://www.w3.org/2000/svg">
<path d="M761.726 154.511C761.726 163.208 758.272 171.551 752.12 177.705C745.967 183.858 737.63 187.311 728.926 187.311C668.056 187.379 609.693 211.591 566.644 254.633C523.596 297.675 499.39 356.036 499.323 416.915V435.11C519.177 423.318 541.821 417.038 564.916 416.915C599.718 416.915 633.087 430.733 657.69 455.343C682.299 479.946 696.118 513.315 696.118 548.11C696.118 582.911 682.3 616.28 657.69 640.883C633.087 665.493 599.718 679.311 564.916 679.311C530.12 679.311 496.752 665.493 472.149 640.883C447.54 616.28 433.721 582.911 433.721 548.11V416.908V416.914C433.807 338.649 464.935 263.613 520.276 208.274C575.623 152.927 650.652 121.799 728.916 121.714C737.62 121.714 745.957 125.169 752.11 131.321C758.263 137.474 761.717 145.817 761.717 154.515L761.726 154.511ZM171.32 679.308C218.195 679.308 261.506 654.301 284.944 613.708C308.381 573.119 308.381 523.101 284.944 482.512C261.506 441.919 218.195 416.912 171.32 416.912C148.225 417.034 125.581 423.315 105.72 435.108V416.912C105.787 356.036 130 297.675 173.042 254.631C216.084 211.587 274.445 187.376 335.323 187.309C347.042 187.309 357.87 181.059 363.73 170.909C369.589 160.759 369.589 148.259 363.73 138.109C357.87 127.959 347.042 121.709 335.323 121.709C257.058 121.795 182.022 152.923 126.683 208.269C71.3358 263.609 40.2077 338.645 40.1233 416.909V548.111V548.105C40.1233 582.906 53.9478 616.275 78.5514 640.878C103.155 665.487 136.528 679.306 171.325 679.306L171.32 679.308Z" fill="white"/>
</svg>
